<svg width="74" height="83" viewBox="0 0 74 83" fill="none" xmlns="http://www.w3.org/2000/svg">
<path d="M68.8516 16.9491L42.1536 1.39298C40.596 0.481318 38.8162 0 37.0027 0C35.1891 0 33.4093 0.481318 31.8518 1.39298L5.14837 16.9491C3.56942 17.8839 2.26488 19.2051 1.36243 20.7832C0.459985 22.3614 -0.00942774 24.1425 0.000143488 25.9522V57.0592C-0.00850053 58.8679 0.461354 60.648 1.36375 62.2252C2.26615 63.8023 3.5702 65.1227 5.14837 66.057L31.8464 81.6079C33.4042 82.519 35.1839 83 36.9973 83C38.8108 83 40.5905 82.519 42.1482 81.6079L68.8463 66.057C70.4262 65.1229 71.7318 63.802 72.6353 62.2238C73.5387 60.6455 74.0089 58.8641 73.9999 57.0539V25.9522C74.0094 24.1425 73.54 22.3614 72.6376 20.7832C71.7351 19.2051 70.4306 17.8839 68.8516 16.9491Z" fill="white"/>
<path d="M68.8516 16.9491L42.1536 1.39298C40.596 0.481318 38.8162 0 37.0027 0C35.1891 0 33.4093 0.481318 31.8518 1.39298L5.14837 16.9491C3.56942 17.8839 2.26488 19.2051 1.36243 20.7832C0.459985 22.3614 -0.00942774 24.1425 0.000143488 25.9522V57.0592C-0.00850053 58.8679 0.461354 60.648 1.36375 62.2252C2.26615 63.8023 3.5702 65.1227 5.14837 66.057L31.8464 81.6079C33.4042 82.519 35.1839 83 36.9973 83C38.8108 83 40.5905 82.519 42.1482 81.6079L68.8463 66.057C70.4262 65.1229 71.7318 63.802 72.6353 62.2238C73.5387 60.6455 74.0089 58.8641 73.9999 57.0539V25.9522C74.0094 24.1425 73.54 22.3614 72.6376 20.7832C71.7351 19.2051 70.4306 17.8839 68.8516 16.9491ZM32.782 80.0182L6.08392 64.4673C4.78685 63.696 3.71524 62.6083 2.9733 61.3102C2.23136 60.012 1.84434 58.5476 1.84987 57.0592V25.9522C1.84382 24.4637 2.23062 22.999 2.97261 21.7008C3.7146 20.4026 4.78649 19.315 6.08392 18.544L32.782 2.98794C34.0574 2.24121 35.5149 1.84696 37 1.84696C38.4851 1.84696 39.9426 2.24121 41.218 2.98794L67.8947 18.544C68.9812 19.1899 69.9109 20.0606 70.6191 21.0954C71.3274 22.1303 71.7969 23.3043 71.9951 24.5356C71.1077 22.6836 69.1136 22.1747 66.7881 23.4863L41.5495 38.8273C38.4007 40.6269 36.0805 42.6573 36.0751 46.3824V76.9279C36.0751 79.1577 36.9893 80.6005 38.4007 81.0255C37.9385 81.1086 37.4699 81.1525 37 81.1567C35.5154 81.1556 34.0584 80.7623 32.782 80.0182Z" fill="#2F3A3E"/>
<path d="M61.8537 60.0654L55.2032 63.9689C55.116 64.0033 55.0408 64.0617 54.9868 64.1371C54.9327 64.2125 54.902 64.3017 54.8985 64.3939V66.1095C54.8985 66.3194 55.0428 66.4033 55.2192 66.3036L61.9713 62.2742C62.0523 62.2146 62.1144 62.1337 62.1503 62.0408C62.1863 61.9479 62.1947 61.8469 62.1744 61.7496V60.2438C62.1691 60.0497 62.014 59.9658 61.8537 60.0654Z" fill="#3AB14A"/>
<path d="M47.6974 45.6951C47.9112 45.5901 48.0876 45.6951 48.093 45.9941L48.1144 48.2712C48.9141 47.9146 49.8063 47.8083 50.6698 47.9669C50.8355 48.0088 50.905 48.2292 50.8408 48.4915L50.333 50.4905C50.2945 50.6413 50.215 50.7791 50.1031 50.8892C50.0638 50.9273 50.0187 50.9591 49.9694 50.9836C49.909 51.0157 49.8393 51.0268 49.7716 51.0151C48.9297 50.8321 48.0484 50.971 47.3071 51.4034C46.776 51.6382 46.3231 52.0153 46.0006 52.4914C45.6781 52.9676 45.4991 53.5233 45.4841 54.0948C45.4841 55.1442 46.0187 55.4327 47.8845 55.4642C50.349 55.5062 51.4182 56.5607 51.4449 59.0004C51.4159 60.2586 51.1083 61.4955 50.5433 62.6253C49.9783 63.7551 49.1696 64.7506 48.1732 65.5429L48.2159 67.7779C48.2141 67.9145 48.1774 68.0485 48.1092 68.1677C48.041 68.2868 47.9436 68.3873 47.8257 68.46L46.4785 69.2207C46.2646 69.3257 46.0882 69.2207 46.0829 68.9269V66.7286C44.9281 67.2008 43.7573 67.311 43.0089 67.0172C42.8699 66.9647 42.8058 66.7601 42.8646 66.524L43.351 64.5041C43.388 64.3442 43.4716 64.1984 43.5916 64.0843C43.6297 64.0486 43.6729 64.0185 43.7199 63.9951C43.7544 63.9799 43.7917 63.9721 43.8295 63.9721C43.8673 63.9721 43.9047 63.9799 43.9391 63.9951C44.8921 64.2487 45.9087 64.1224 46.7672 63.6436C47.375 63.3559 47.8911 62.9105 48.2595 62.3557C48.628 61.8008 48.8347 61.1576 48.8575 60.4957C48.8575 59.3624 48.2213 58.8902 46.719 58.8797C44.7784 58.8797 42.9768 58.5125 42.9394 55.7318C42.9615 54.532 43.2538 53.3519 43.7954 52.2761C44.337 51.2003 45.1146 50.2554 46.0722 49.5093L45.9759 47.2218C45.9755 47.0833 46.0111 46.947 46.0794 46.8258C46.1477 46.7046 46.2465 46.6026 46.3662 46.5293L47.6974 45.6951Z" fill="white"/>
</svg>
