<svg width="54" height="80" viewBox="0 0 54 80" fill="none" xmlns="http://www.w3.org/2000/svg">
<path d="M27.0783 39.6596C27.0783 36.1535 28.4711 32.791 30.9503 30.3118C33.4295 27.8326 36.7921 26.4398 40.2982 26.4398C43.8043 26.4398 47.1668 27.8326 49.646 30.3118C52.1253 32.791 53.5181 36.1535 53.5181 39.6596C53.5181 43.1658 52.1253 46.5283 49.646 49.0075C47.1668 51.4867 43.8043 52.8795 40.2982 52.8795C36.7921 52.8795 33.4295 51.4867 30.9503 49.0075C28.4711 46.5283 27.0783 43.1658 27.0783 39.6596Z" fill="#1ABCFE"/>
<path d="M0.63855 66.0994C0.63855 62.5933 2.03135 59.2307 4.51056 56.7515C6.98977 54.2723 10.3523 52.8795 13.8584 52.8795H27.0783V66.0994C27.0783 69.6055 25.6855 72.968 23.2063 75.4473C20.7271 77.9265 17.3646 79.3193 13.8584 79.3193C10.3523 79.3193 6.98977 77.9265 4.51056 75.4473C2.03135 72.968 0.63855 69.6055 0.63855 66.0994Z" fill="#0ACF83"/>
<path d="M27.0783 0V26.4398H40.2982C43.8043 26.4398 47.1668 25.047 49.646 22.5677C52.1253 20.0885 53.5181 16.726 53.5181 13.2199C53.5181 9.71375 52.1253 6.35122 49.646 3.87201C47.1668 1.3928 43.8043 0 40.2982 0H27.0783Z" fill="#FF7262"/>
<path d="M0.63855 13.2199C0.63855 16.726 2.03135 20.0885 4.51056 22.5677C6.98977 25.047 10.3523 26.4398 13.8584 26.4398H27.0783V0H13.8584C10.3523 0 6.98977 1.3928 4.51056 3.87201C2.03135 6.35122 0.63855 9.71375 0.63855 13.2199Z" fill="#F24E1E"/>
<path d="M0.63855 39.6596C0.63855 43.1658 2.03135 46.5283 4.51056 49.0075C6.98977 51.4867 10.3523 52.8795 13.8584 52.8795H27.0783V26.4398H13.8584C10.3523 26.4398 6.98977 27.8326 4.51056 30.3118C2.03135 32.791 0.63855 36.1535 0.63855 39.6596Z" fill="#A259FF"/>
</svg>
