<svg width="82" height="83" viewBox="0 0 82 83" fill="none" xmlns="http://www.w3.org/2000/svg">
<path d="M0 5C0 2.23857 2.23858 0 5 0H76.3253C79.0867 0 81.3253 2.23858 81.3253 5V77.9518C81.3253 80.7132 79.0867 82.9518 76.3253 82.9518H5C2.23858 82.9518 0 80.7132 0 77.9518V5Z" fill="#F0DB4F"/>
<path d="M74.6693 63.168C74.074 59.3831 71.6544 56.2054 64.4882 53.2406C62.1478 52.1434 59.5546 51.339 58.5654 49.6476C58.4395 49.4325 58.3626 49.1929 58.3062 48.9502C58.0969 48.0501 58.0852 47.4862 58.2496 46.8851C58.783 44.6852 61.3573 43.9992 63.3982 44.63C63.6539 44.7174 63.9069 44.827 64.1542 44.9588C65.942 45.9121 68.5696 46.5251 70.2671 45.4189C71.7788 44.4338 71.9919 42.5442 70.7473 41.2379C70.7302 41.2199 70.713 41.2021 70.6958 41.1842C68.5854 38.7793 65.7096 37.5413 61.1099 37.6359C60.3137 37.7384 59.5098 37.8487 58.7135 37.9513C56.4176 38.5427 54.2297 39.7728 52.9465 41.4208C49.0967 45.8759 50.1944 53.6742 54.8791 56.8836C59.4942 60.4161 66.2739 61.2204 67.1397 64.5243C67.9824 68.5694 64.2254 69.8782 60.4915 69.4131C59.0071 69.0984 57.8781 68.5382 56.8934 67.6819C55.3285 66.3212 53.1983 65.6105 51.411 66.6621C49.7193 67.6575 48.9932 69.8204 50.2829 71.3001C50.5453 71.6011 50.8305 71.9202 51.1453 72.2833C57.036 78.3785 71.7781 78.0789 74.422 68.8532C74.5301 68.5378 75.2414 66.4245 74.6693 63.168ZM44.214 41.9282C44.211 39.8276 42.5081 38.1247 40.4075 38.1247C38.307 38.1247 36.6042 39.8276 36.6012 41.9282C36.5935 47.3495 36.5733 52.7515 36.5733 58.1846C36.5733 62.4504 36.7897 66.3615 36.1094 67.56C34.9962 69.9176 32.1127 69.6259 30.7985 69.1685C29.4612 68.4983 28.7809 67.5442 27.9924 66.1959C27.7372 65.7404 27.2946 65.651 26.8517 65.9274C26.2899 66.2779 25.7286 66.6288 25.1674 66.9799C23.0086 68.3305 22.1174 71.1995 23.9063 73.0118C24.4984 73.6116 25.1502 74.1422 25.8587 74.5856C28.7576 76.3597 32.6538 76.9038 36.7279 75.9497C39.3795 75.1612 41.6676 73.5291 42.8658 71.0452C44.5975 67.7887 44.2264 63.8461 44.211 59.4856C44.2427 53.6375 44.2223 47.7894 44.214 41.9282Z" fill="#323330"/>
</svg>
