<svg width="329" height="224" viewBox="0 0 329 224" fill="none" xmlns="http://www.w3.org/2000/svg">
<path d="M143.491 201.824C150.74 205.189 158.438 208.184 166.486 209.426C182.156 211.841 194.675 206.579 209.585 194.671C227.275 179.941 235.097 154.341 230.881 132.632C228.134 118.469 218.922 106.395 208.464 97.1869C198.2 88.1569 180.649 74.7539 166.486 74C141.447 72.6597 120.059 93.7401 109.023 117.605C97.7929 141.884 102.433 171.103 121.554 188.075C127.988 193.794 135.649 198.18 143.491 201.824Z" fill="#A3E1C2"/>
<path d="M98 170H210" stroke="black" stroke-width="2"/>
<path d="M88 190H140" stroke="black" stroke-width="2"/>
<path d="M138 210H201" stroke="black" stroke-width="2"/>
<path d="M198 190H230" stroke="black" stroke-width="2"/>
<path fill-rule="evenodd" clip-rule="evenodd" d="M162.267 101C145.644 101.755 132.422 115.531 132.611 132.328V136.479L126 155.918L135.444 158.371V168.562C135.444 173.091 139.222 176.677 143.756 176.677H156.033L160 188L188.711 179.885L184.556 153.464C190.6 147.614 194 139.688 194 131.195C194 114.399 180.211 101 163.4 101C163.022 101 162.644 101 162.267 101Z" fill="#F9F9F9" stroke="black" stroke-width="2"/>
<circle cx="93.5" cy="92.5" r="12.5" fill="#D1D0D6"/>
<path fill-rule="evenodd" clip-rule="evenodd" d="M89.433 66.9294V66.9294C93.9954 69.5635 95.5298 75.3695 92.8776 79.9632L82.4428 98.0367C79.7907 102.63 73.9954 104.205 69.433 101.57V101.57C64.8706 98.9364 63.3362 93.1304 65.9884 88.5367L76.4231 70.4632C79.0753 65.8695 84.8706 64.2954 89.433 66.9294Z" stroke="black" stroke-width="2"/>
<path d="M71.2057 80L87.6602 89.5" stroke="black" stroke-width="2"/>
<path fill-rule="evenodd" clip-rule="evenodd" d="M135.063 38.567L172.232 30.6663V30.6663L176.287 49.7402C177.03 53.2371 174.729 56.7165 171.174 57.4722L146.933 62.6248C143.377 63.3805 139.86 61.1377 139.117 57.6408L135.063 38.567V38.567Z" stroke="black" stroke-width="2"/>
<path d="M146.242 36.8154L146.31 32.3281C146.391 30.7009 147.476 29.3966 148.944 29.0848L155.302 27.7333C156.769 27.4215 158.291 28.1713 159.026 29.6253L160.914 33.6967" stroke="black" stroke-width="2"/>
<path fill-rule="evenodd" clip-rule="evenodd" d="M162.662 43.4135L158.689 44.2582L157.779 39.9788L153.011 40.9923L153.92 45.2717L149.947 46.1164L151.038 51.2516L155.012 50.407L155.921 54.6864L160.69 53.6728L159.78 49.3934L163.754 48.5488L162.662 43.4135Z" stroke="black" stroke-width="2"/>
<path fill-rule="evenodd" clip-rule="evenodd" d="M273.364 160.118C274.688 161.87 274.298 164.437 272.546 165.76C271.987 166.131 271.317 166.415 270.622 166.5L248.885 169.169C246.701 169.437 244.695 167.87 244.427 165.686C244.342 164.992 244.455 164.273 244.68 163.64L252.159 146.602L249.234 122.781L259.16 121.562L262.085 145.383L273.364 160.118Z" stroke="black" stroke-width="2"/>
<path d="M248.607 154.594L266.955 152.341" stroke="black" stroke-width="2"/>
<path fill-rule="evenodd" clip-rule="evenodd" d="M75.4421 145.354C72.8016 146.161 70.8215 148.348 70.3027 151.028C67.9137 148.644 64.1743 148.189 61.239 149.926C58.3037 151.663 56.9284 155.144 57.9056 158.363C59.0862 162.225 62.5982 165.01 66.6275 166.946C69.7 168.323 72.8947 169.421 76.1724 170.227C78.409 167.702 80.4415 165.008 82.251 162.17C84.7823 157.958 85.8627 154.038 84.6822 150.177C84.1147 148.321 82.8221 146.77 81.0891 145.865C79.356 144.96 77.3246 144.776 75.4421 145.354Z" stroke="black" stroke-width="2"/>
<path fill-rule="evenodd" clip-rule="evenodd" d="M230.232 57.2424L257.73 66.177C259.322 66.6943 260.2 68.4239 259.681 70.0207L252.606 91.7949C252.087 93.3917 250.36 94.2749 248.768 93.7576L221.27 84.823C219.678 84.3057 218.8 82.5761 219.319 80.9793L226.394 59.2051C226.913 57.6083 228.64 56.7251 230.232 57.2424Z" stroke="black" stroke-width="2"/>
<path d="M228.197 73.0725L234.617 75.1584L240.867 68.058L239.085 83.2509L244.603 78.4031L251.022 80.4889" stroke="black" stroke-width="2"/>
</svg>
