<svg width="92" height="81" viewBox="0 0 92 81" fill="none" xmlns="http://www.w3.org/2000/svg">
<path d="M91.9831 40.1255C91.9831 34.1571 84.3952 28.501 72.7616 24.9935C75.4463 13.3139 74.2531 4.02173 68.9956 1.04675C67.7838 0.348917 66.3669 0.0183638 64.8195 0.0183638V4.11355C65.6771 4.11355 66.3669 4.27882 66.9448 4.59101C69.4804 6.02341 70.5803 11.4775 69.7227 18.4926C69.5177 20.2188 69.1821 22.0369 68.7719 23.8916C65.1178 23.0102 61.1281 22.3307 56.9333 21.89C54.4164 18.4926 51.8063 15.4074 49.1776 12.7079C55.2554 7.14362 60.9603 4.09519 64.8381 4.09519V0C59.7112 0 52.9995 3.59936 46.2132 9.84313C39.427 3.63608 32.7153 0.0734565 27.5884 0.0734565V4.16864C31.4476 4.16864 37.1711 7.19871 43.2489 12.7263C40.6388 15.4258 38.0287 18.4926 35.5492 21.89C31.3357 22.3307 27.346 23.0102 23.6919 23.91C23.2631 22.0736 22.9461 20.2923 22.7224 18.5844C21.8462 11.5694 22.9275 6.11523 25.4444 4.66447C26.0037 4.33392 26.7308 4.18701 27.5884 4.18701V0.0918203C26.0223 0.0918203 24.6054 0.422373 23.3749 1.12021C18.1361 4.09518 16.9616 13.369 19.6649 25.0118C8.0686 28.5377 0.517975 34.1755 0.517975 40.1255C0.517975 46.0938 8.10589 51.7499 19.7394 55.2574C17.0548 66.937 18.248 76.2292 23.5054 79.2042C24.7173 79.902 26.1342 80.2326 27.7002 80.2326C32.8272 80.2326 39.5389 76.6332 46.3251 70.3894C53.1114 76.5965 59.823 80.1591 64.95 80.1591C66.516 80.1591 67.933 79.8286 69.1634 79.1307C74.4023 76.1557 75.5768 66.8819 72.8735 55.2391C84.4325 51.7315 91.9831 46.0754 91.9831 40.1255ZM67.7092 27.8766C67.0194 30.2456 66.1618 32.688 65.1924 35.1304C64.428 33.6613 63.6263 32.1922 62.75 30.7231C61.8924 29.2539 60.9789 27.8215 60.0654 26.4259C62.7128 26.8115 65.2669 27.289 67.7092 27.8766ZM59.1705 47.4344C57.7163 49.9135 56.2248 52.2641 54.6774 54.4494C51.8995 54.6882 49.0844 54.8167 46.2505 54.8167C43.4354 54.8167 40.6202 54.6882 37.861 54.4678C36.3135 52.2825 34.8034 49.9502 33.3492 47.4894C31.9323 45.0838 30.6459 42.6413 29.4714 40.1805C30.6273 37.7198 31.9323 35.259 33.3306 32.8533C34.7848 30.3741 36.2763 28.0235 37.8237 25.8382C40.6016 25.5995 43.4167 25.4709 46.2505 25.4709C49.0657 25.4709 51.8809 25.5995 54.6401 25.8199C56.1875 28.0052 57.6977 30.3374 59.1519 32.7982C60.5688 35.2039 61.8552 37.6463 63.0297 40.1071C61.8552 42.5679 60.5688 45.0287 59.1705 47.4344ZM65.1924 45.047C66.1991 47.5078 67.0567 49.9686 67.7652 52.3559C65.3229 52.9436 62.7501 53.4394 60.084 53.825C60.9976 52.411 61.9111 50.9603 62.7687 49.4728C63.6263 48.0036 64.428 46.5161 65.1924 45.047ZM46.2878 64.6415C44.554 62.8785 42.8201 60.9136 41.1049 58.765C42.7828 58.8384 44.498 58.8935 46.2319 58.8935C47.9844 58.8935 49.7182 58.8568 51.4148 58.765C49.7369 60.9136 48.003 62.8785 46.2878 64.6415ZM32.417 53.825C29.7697 53.4394 27.2155 52.9619 24.7732 52.3743C25.463 50.0053 26.3206 47.5629 27.2901 45.1205C28.0545 46.5896 28.8561 48.0587 29.7324 49.5279C30.6086 50.997 31.5035 52.4294 32.417 53.825ZM46.1946 15.6094C47.9285 17.3724 49.6623 19.3374 51.3775 21.4859C49.6996 21.4125 47.9844 21.3574 46.2505 21.3574C44.498 21.3574 42.7642 21.3941 41.0676 21.4859C42.7456 19.3374 44.4794 17.3724 46.1946 15.6094ZM32.3984 26.4259C31.4849 27.8399 30.5713 29.2907 29.7137 30.7782C28.8561 32.2473 28.0545 33.7164 27.2901 35.1855C26.2833 32.7247 25.4257 30.264 24.7173 27.8766C27.1596 27.3074 29.7324 26.8115 32.3984 26.4259ZM15.526 49.4177C8.92621 46.6447 4.65684 43.0086 4.65684 40.1255C4.65684 37.2423 8.92621 33.5879 15.526 30.8332C17.1294 30.1538 18.8818 29.5478 20.6903 28.9785C21.7529 32.5778 23.1512 36.3241 24.8851 40.1622C23.1699 43.9819 21.7902 47.7098 20.7462 51.2908C18.9005 50.7215 17.148 50.0971 15.526 49.4177ZM25.5562 75.6599C23.0207 74.2275 21.9207 68.7734 22.7783 61.7583C22.9834 60.0321 23.319 58.2141 23.7292 56.3593C27.3833 57.2408 31.373 57.9202 35.5678 58.361C38.0847 61.7583 40.6948 64.8435 43.3235 67.543C37.2457 73.1073 31.5408 76.1557 27.6629 76.1557C26.824 76.1374 26.1155 75.9721 25.5562 75.6599ZM69.7787 61.6665C70.6549 68.6816 69.5736 74.1357 67.0567 75.5864C66.4974 75.917 65.7703 76.0639 64.9127 76.0639C61.0535 76.0639 55.3299 73.0339 49.2521 67.5063C51.8622 64.8068 54.4723 61.74 56.9519 58.3426C61.1654 57.9019 65.1551 57.2224 68.8092 56.3226C69.238 58.1773 69.5736 59.9586 69.7787 61.6665ZM76.9564 49.4177C75.3531 50.0971 73.6006 50.7032 71.7922 51.2724C70.7295 47.6731 69.3312 43.9268 67.5974 40.0887C69.3126 36.269 70.6922 32.5411 71.7362 28.9601C73.5819 29.5294 75.3344 30.1538 76.9751 30.8332C83.5749 33.6062 87.8442 37.2423 87.8442 40.1255C87.8256 43.0086 83.5562 46.6631 76.9564 49.4177Z" fill="#61DAFB"/>
<path d="M46.2319 48.5179C50.9374 48.5179 54.752 44.7605 54.752 40.1256C54.752 35.4906 50.9374 31.7332 46.2319 31.7332C41.5264 31.7332 37.7118 35.4906 37.7118 40.1256C37.7118 44.7605 41.5264 48.5179 46.2319 48.5179Z" fill="#61DAFB"/>
</svg>
