<svg width="81" height="81" viewBox="0 0 81 81" fill="none" xmlns="http://www.w3.org/2000/svg">
<g clip-path="url(#clip0_22_328)">
<path d="M0 40.5V0H81V81H0" fill="#007ACC"/>
<path d="M17.7592 40.6418V43.9425H28.2892V73.9125H35.7615V43.9425H46.2915V40.7025C46.2915 38.88 46.2915 37.4018 46.2105 37.3613C46.2105 37.3005 39.7912 37.2803 31.995 37.2803L17.82 37.341V40.662L17.7592 40.6418ZM65.0835 37.26C67.149 37.746 68.7285 38.6775 70.146 40.1558C70.8952 40.9658 72.009 42.3833 72.09 42.7478C72.09 42.8693 68.5868 45.2385 66.4605 46.5548C66.3795 46.6155 66.0555 46.2712 65.7315 45.7448C64.6785 44.2463 63.6052 43.5983 61.9245 43.4768C59.4945 43.3148 57.8745 44.5905 57.8745 46.7168C57.8745 47.3648 57.996 47.7293 58.239 48.2558C58.7857 49.3695 59.7982 50.0378 62.937 51.4148C68.7285 53.9055 71.2395 55.5457 72.7582 57.8948C74.4795 60.5273 74.8642 64.6583 73.71 67.7565C72.414 71.1383 69.255 73.4265 64.7393 74.1758C63.3218 74.4188 60.0817 74.3783 58.563 74.115C55.323 73.5075 52.2247 71.8875 50.3212 69.8018C49.572 68.9918 48.1342 66.825 48.2152 66.6833L48.9847 66.1973L52.0222 64.4355L54.3105 63.099L54.837 63.8078C55.5052 64.8608 57.0037 66.2783 57.8745 66.7643C60.507 68.121 64.0305 67.9388 65.772 66.3593C66.5212 65.6708 66.8452 64.9418 66.8452 63.9293C66.8452 62.9978 66.7035 62.5725 66.2377 61.8638C65.5897 60.9728 64.2937 60.2438 60.6487 58.6238C56.457 56.8418 54.675 55.7078 53.0145 53.9663C52.0627 52.9133 51.192 51.273 50.787 49.9163C50.4832 48.7418 50.382 45.8663 50.6655 44.712C51.5362 40.662 54.594 37.827 58.968 37.017C60.3855 36.7335 63.7267 36.855 65.124 37.2195L65.0835 37.26Z" fill="white"/>
</g>
<defs>
<clipPath id="clip0_22_328">
<rect width="81" height="81" rx="5" fill="white"/>
</clipPath>
</defs>
</svg>
