<svg width="79" height="79" viewBox="0 0 79 79" fill="none" xmlns="http://www.w3.org/2000/svg">
<mask id="mask0_22_426" style="mask-type:alpha" maskUnits="userSpaceOnUse" x="0" y="0" width="79" height="79">
<path fill-rule="evenodd" clip-rule="evenodd" d="M56.0186 78.2552C57.2623 78.7396 58.6818 78.7088 59.9378 78.1039L76.2038 70.278C77.9134 69.4571 78.9996 67.7259 78.9996 65.8281V12.7623C78.9996 10.8645 77.9134 9.13634 76.2038 8.31239L59.9378 0.486453C58.2899 -0.306633 56.3612 -0.112219 54.9139 0.940086C54.7071 1.0913 54.5096 1.25794 54.3245 1.44309L23.1904 29.8491L9.62774 19.5514C8.36559 18.5916 6.60043 18.6719 5.42778 19.7396L1.07661 23.6958C-0.358354 25.0011 -0.358354 27.257 1.07352 28.5623L12.834 39.2952L1.07352 50.025C-0.358354 51.3334 -0.358354 53.5893 1.07661 54.8946L5.42778 58.8508C6.60043 59.9185 8.36559 59.9957 9.62774 59.039L23.1904 48.7443L54.3275 77.1504C54.8213 77.6411 55.3984 78.0145 56.0186 78.2552ZM59.262 21.3628L35.636 39.2952L59.262 57.2307V21.3628Z" fill="white"/>
</mask>
<g mask="url(#mask0_22_426)">
<path d="M76.2036 8.32514L59.9253 0.486855C58.0428 -0.420411 55.7901 -0.0377543 54.3119 1.44041L1.02396 50.0254C-0.407915 51.3339 -0.407915 53.5897 1.02705 54.895L5.37822 58.8512C6.55087 59.9189 8.31912 59.9961 9.58126 59.0394L73.7533 10.3588C75.9073 8.72631 78.9994 10.26 78.9994 12.9633V12.7751C78.9994 10.8772 77.9132 9.146 76.2036 8.32514Z" fill="#0065A9"/>
<path d="M76.2036 70.2657L59.9253 78.1039C58.0428 79.0112 55.7901 78.6285 54.3119 77.1504L1.02396 28.5654C-0.407915 27.26 -0.407915 25.0011 1.02705 23.6989L5.37822 19.7427C6.55087 18.675 8.31912 18.5978 9.58126 19.5544L73.7533 68.232C75.9073 69.8645 78.9994 68.3308 78.9994 65.6275V65.8157C78.9994 67.7136 77.9132 69.4448 76.2036 70.2657Z" fill="#007ACC"/>
<path d="M59.9284 78.104C58.0428 79.0113 55.7932 78.6286 54.312 77.1474C56.1327 78.9681 59.2495 77.6781 59.2495 75.1014V3.48603C59.2495 0.909273 56.1327 -0.380649 54.312 1.44005C55.7901 -0.0381098 58.0428 -0.420766 59.9284 0.483414L76.2036 8.30935C77.9132 9.1333 79.0025 10.8614 79.0025 12.7593V65.8281C79.0025 67.726 77.9163 69.4541 76.2036 70.2781L59.9284 78.104Z" fill="#1F9CF0"/>
<g opacity="0.25">
<path fill-rule="evenodd" clip-rule="evenodd" d="M55.9722 78.2555C57.2158 78.74 58.6353 78.7092 59.8913 78.1043L76.1573 70.2784C77.8669 69.4575 78.9531 67.7263 78.9531 65.8285V12.7627C78.9531 10.8648 77.8669 9.1367 76.1573 8.31276L59.8913 0.48682C58.2434 -0.306266 56.3147 -0.111852 54.8674 0.940452C54.6606 1.09166 54.4631 1.2583 54.278 1.44346L23.1409 29.8495L9.57818 19.5517C8.31603 18.592 6.55087 18.6722 5.37822 19.74L1.02705 23.6962C-0.407915 25.0015 -0.407915 27.2573 1.02396 28.5658L12.7876 39.2956L1.02396 50.0254C-0.407915 51.3338 -0.407915 53.5896 1.02705 54.895L5.37822 58.8511C6.55087 59.9189 8.31603 59.996 9.57818 59.0394L23.1409 48.7447L54.278 77.1508C54.7717 77.6414 55.3488 78.0148 55.9722 78.2555ZM59.2124 21.3632L35.5865 39.2956L59.2124 57.231V21.3632Z" fill="url(#paint0_linear_22_426)"/>
</g>
</g>
<defs>
<linearGradient id="paint0_linear_22_426" x1="39.4513" y1="-0.000758582" x2="39.4513" y2="78.592" gradientUnits="userSpaceOnUse">
<stop stop-color="white"/>
<stop offset="1" stop-color="white" stop-opacity="0"/>
</linearGradient>
</defs>
</svg>
